<svg xmlns="http://www.w3.org/2000/svg" viewBox="0 0 1200 700" role="img" aria-labelledby="title desc">
  <title id="title">Global Superstore Sales dashboard thumbnail</title>
  <desc id="desc">Abstract regional sales bar chart with scattered geographic markers.</desc>
  <rect width="1200" height="700" fill="#14201c"/>
  <g stroke="#9dccb0" stroke-width="1" opacity=".18">
    <path d="M0 140H1200M0 260H1200M0 380H1200M0 500H1200"/>
    <path d="M170 0V700M340 0V700M510 0V700M680 0V700M850 0V700M1020 0V700"/>
  </g>
  <g fill="#9dccb0" opacity=".55">
    <circle cx="780" cy="120" r="5"/>
    <circle cx="860" cy="170" r="4"/>
    <circle cx="930" cy="110" r="6"/>
    <circle cx="1000" cy="160" r="4"/>
    <circle cx="1060" cy="95" r="5"/>
    <circle cx="1120" cy="150" r="4"/>
    <circle cx="900" cy="60" r="3"/>
    <circle cx="1040" cy="55" r="3"/>
  </g>
  <g>
    <rect x="790" y="500" width="55" height="100" fill="#3a4d47"/>
    <rect x="860" y="450" width="55" height="150" fill="#3a4d47"/>
    <rect x="930" y="390" width="55" height="210" fill="#2c6554"/>
    <rect x="1000" y="330" width="55" height="270" fill="#d5a45c"/>
    <rect x="1070" y="410" width="55" height="190" fill="#3a4d47"/>
  </g>
  <text x="70" y="90" fill="#9dccb0" font-family="monospace" font-size="22" letter-spacing="4">TABLEAU / SALES ANALYSIS</text>
  <text x="70" y="180" fill="#f5f6f1" font-family="Arial, sans-serif" font-size="60" font-weight="700">Global Superstore</text>
  <text x="70" y="250" fill="#f5f6f1" font-family="Arial, sans-serif" font-size="64" font-weight="700">Sales</text>
  <text x="72" y="315" fill="#d5a45c" font-family="monospace" font-size="24">GEOGRAPHY · DISCOUNT · PROFIT</text>
  <text x="70" y="650" fill="#f5f6f1" font-family="monospace" font-size="18" opacity=".8">MULTI-COUNTRY  /  DISCOUNT vs SALES</text>
</svg>
